<?xml version="1.0" standalone="no"?>
<!DOCTYPE svg PUBLIC "-//W3C//DTD SVG 20010904//EN"
 "http://www.w3.org/TR/2001/REC-SVG-20010904/DTD/svg10.dtd">
<svg version="1.0" xmlns="http://www.w3.org/2000/svg"
 width="1024.000000pt" height="1024.000000pt" viewBox="0 0 1024.000000 1024.000000"
 preserveAspectRatio="xMidYMid meet">

<g transform="translate(0.000000,1024.000000) scale(0.100000,-0.100000)"
fill="#000000" stroke="none">
<path d="M2830 5645 c0 -1070 3 -1945 6 -1945 10 0 193 128 269 188 39 31 117
101 174 156 339 331 575 736 696 1200 78 297 100 517 93 898 l-6 260 387 -7
c412 -7 504 -15 665 -62 264 -76 518 -239 690 -443 223 -264 339 -565 353
-910 11 -301 -66 -591 -225 -848 -174 -280 -410 -497 -1072 -984 -377 -278
-798 -566 -907 -623 -32 -17 -40 -13 129 -54 312 -77 578 -106 882 -98 414 11
757 92 1101 261 688 338 1186 955 1369 1696 49 198 66 323 73 535 32 991 -471
1887 -1339 2382 -314 179 -641 287 -997 328 -104 12 -321 15 -1233 15 l-1108
0 0 -1945z"/>
</g>
</svg>
